<svg xmlns="http://www.w3.org/2000/svg" width="203" height="255" fill="none" viewBox="0 0 203 255">
  <path fill="url(#a)" d="M66.74 240.8c-17.4-2.5-35.1-5.6-52.5-9.5 1.2-5.8 1.3-11.6 1.3-19.4V43c0-7.8-.1-13.7-1.3-19.4 17.4-3.9 35.1-7 52.5-9.6 11.6-1.7 23.2-3.2 34.8-4.4 11.6 1.2 23.1 2.7 34.7 4.4 17.4 2.6 35.2 5.7 52.5 9.6-1.2 5.7-1.3 11.6-1.3 19.4v168.9c0 7.8.1 13.6 1.3 19.4-17.3 3.9-35.1 7-52.5 9.5-11.6 1.7-23.1 3.2-34.7 4.4-11.6-1.2-23.2-2.7-34.8-4.4Z"/>
  <path fill="#4D5E6E" d="M101.54 14.9c-11.4.933-22.766 2.1-34.1 3.5-17 2.1-34.3 4.6-51.2 7.8v-.1c16.9-3.8 34.3-6.8 51.3-9.3 11.3-1.7 22.6-3.1 34-4.3 11.3 1.2 22.6 2.6 33.9 4.3 17 2.5 34.4 5.5 51.3 9.3v.1c-16.9-3.2-34.2-5.7-51.2-7.8a838.715 838.715 0 0 0-34-3.5Z" opacity=".5" style="mix-blend-mode:screen"/>
  <path fill="#4D5E6E" d="M135.54 236.4c17-2.1 34.3-4.6 51.2-7.7-16.9 3.9-34.3 6.9-51.3 9.4-11.3 1.6-22.6 3.1-33.9 4.2-11.4-1.1-22.7-2.6-34-4.2-17-2.5-34.4-5.5-51.3-9.4 16.9 3.1 34.2 5.6 51.2 7.7 11.334 1.4 22.7 2.6 34.1 3.6 11.334-1 22.667-2.2 34-3.6Z" opacity=".2"/>
  <path fill="url(#b)" d="M202.74 17.6c-4 7.6-5.3 10.9-5.3 27.5V59c-1.9 2.6-2.1 5.1 0 7.4-.7 3.7-.9 9.7 0 14.4 0 1.6-1.8 2.5-1.8 4.1 0 3 1.8 6.7 1.8 9.7v115.2c-1.1 1.1-2 2.2-2.1 3.1 0 1.1 1.6 3.1 2.3 6.5.6 8.7 2 12 5.1 17.8l-8.5-4.1c-2.8-7.2-2.8-15.7-2.8-23.3V45.1c0-7.7 0-16.1 2.8-23.4l8.5-4.1Z"/>
  <path fill="url(#c)" d="M.24 17.6c3.9-.6 9.2-1.2 12.7-3 1-.2 2.6.9 3.7.7 1-.2 1.7-2.6 2.7-2.9 2.1.2 6.3-.4 9.7-1 16.7-3.2 35-6 52.7-8.7 1.6.8 3.8 1.1 4.3 1 1.9-.5 3.6-2 4.8-2.2 3.6-.4 7.167-.767 10.7-1.1v6.1c-11.7 1.1-23.3 2.6-34.9 4.3-19.2 2.9-38.8 6.3-57.8 10.9l-8.6-4.1Z"/>
  <path fill="url(#d)" d="M101.54 6.5v6c-11.4 1.2-22.7 2.6-34 4.3-17 2.5-34.4 5.5-51.3 9.3l-7.4-4.4c19-4.6 38.6-8 57.8-10.9 11.6-1.7 23.2-3.2 34.9-4.3Z"/>
  <path fill="url(#e)" d="M101.54.4c3.2 2.1 7.4 2 10.9 1.2 18.6 2.2 38.2 5.2 56.3 8.6 2.1 2 4.1 3.2 5.2 3.5 4.1 1 10.7.6 14 .4 4.2 1.8 11 1.3 14.8 3.5l-8.5 4.1c-19.1-4.6-38.7-8-57.9-10.9-11.6-1.7-23.2-3.2-34.8-4.3V.4Z"/>
  <path fill="url(#f)" d="m194.24 21.7-7.5 4.4c-16.9-3.8-34.3-6.8-51.3-9.3-11.3-1.7-22.6-3.1-33.9-4.3v-6c11.6 1.1 23.2 2.6 34.8 4.3 19.2 2.9 38.8 6.3 57.9 10.9Z"/>
  <path fill="url(#g)" d="M194.24 21.7c-2.8 7.3-2.8 15.7-2.8 23.4v164.7c0 7.6 0 16.1 2.8 23.3l-7.5-4.4c-1.2-5.6-1.3-11.3-1.3-18.9v-18.9c2.7-4.3 2.7-8.6 0-12.7V45.1c0-7.6.1-13.3 1.3-19l7.5-4.4Z"/>
  <path fill="url(#h)" d="M16.24 26.1c1.2 5.7 1.3 11.4 1.3 19v156.1c0 1.5-1.7 2.6-1.3 3.2.7 1.1 1.3 4.1 1.3 5.4 0 7.6-.1 13.3-1.3 18.9l-7.4 4.4c2.7-7.2 2.7-15.7 2.7-23.3V45.1c0-7.7 0-16.1-2.7-23.4l7.4 4.4Z"/>
  <path fill="url(#i)" d="M11.54 74.5c.8 1.7 1.4 2.2 1.4 2.9.1 1.2-.6 2.2-1.4 4v128.4c0 7.6 0 16.1-2.7 23.3l-8.6 4.1c4-7.5 5.3-10.8 5.3-27.4v-23.3c0-2.1 2.1-5.9 2.1-8 0-1.7-2.1-1.8-2.1-3.5v-4.6c2.1 0 1.9-1.8 0-5.2V57.4c0-.7 1.4-2.1 1.4-2.7 0-.6-1.4-.4-1.4-1 .8-2.7.9-5.6 0-8.6 1.1-1.8 1.7-3.7 1.7-5.1-.1-1.2-1.3-2.4-1.8-3-.5-9.9-1.9-13.3-5.2-19.4l8.6 4.1c2.7 7.3 2.7 15.7 2.7 23.4v29.4Z"/>
  <path fill="url(#j)" d="M101.54 242.3v6.1c-11.7-1.2-23.3-2.7-34.9-4.4-19.2-2.8-38.8-6.3-57.8-10.9l7.4-4.4c16.9 3.9 34.3 6.9 51.3 9.4 11.3 1.6 22.6 3.1 34 4.2Z"/>
  <path fill="url(#k)" d="M101.54 248.4v6c-3.1-1.3-11.8-3.9-18.2-4.5-3.7-.3-5.2 1.5-8.6 1.3-13.2-1.8-25.4-3.7-38-6.1-2.6-.5-3.4-2.9-4.3-3.1-.3-.1-1.2.8-1.3 2-.933-.133-1.9-.3-2.9-.5-2.2-1.9-4.5-3.2-7.4-1.5-7.3-1.6-14.3-3.2-20.6-4.8l8.6-4.1c19 4.6 38.6 8.1 57.8 10.9 11.6 1.7 23.2 3.2 34.9 4.4Z"/>
  <path fill="url(#l)" d="M135.44 238.1c17-2.5 34.4-5.5 51.3-9.4l7.5 4.4c-19.1 4.6-38.7 8.1-57.9 10.9-11.6 1.7-23.2 3.2-34.8 4.4v-6.1c11.3-1.1 22.6-2.6 33.9-4.2Z"/>
  <path fill="url(#m)" d="m194.24 233.1 8.5 4.1c-9.2 2.4-19.7 4.7-30.9 6.8-.9.2-1.9-1.5-2.9-1.3-1.6.3-3.2 2.5-4.9 2.8-3.8 0-9.9.6-13.7 2.4-16.3 2.7-33.2 4.9-48.8 6.5v-6c11.6-1.2 23.2-2.7 34.8-4.4 19.2-2.8 38.8-6.3 57.9-10.9Z"/>
  <path fill="#89EFF4" d="M101.54 1.1c.333 1.4.7 2.8 1.1 4.2 7.3.9 14.7 1.9 22.2 2.9.4.1.8-2.6 1.2-2.5.5 0 1 2.9 1.4 2.9 15.7 2.3 31.7 5.2 47 8.8-12.7-2.6-25.5-4.7-38.1-6.6-.7-.1-.7 1.2-2 .8-.5-.2-.9-1.2-1.4-1.3a839.59 839.59 0 0 0-31.4-3.8c-11.7 1.1-23.3 2.6-34.9 4.3-12.6 1.9-25.4 4-38 6.6 23.4-5.6 48.3-9.3 71.7-12.1l1.2-4.2Z"/>
  <path fill="#73BDC9" d="M180.74 236.2c-14.8 3.1-29.7 5.6-44.4 7.8-11.6 1.7-23.2 3.2-34.8 4.4-11.7-1.2-23.3-2.7-34.9-4.4-14.7-2.2-29.6-4.7-44.3-7.8 25.5 4.2 54.2 8.2 79.2 10.2 24.9-2 53.6-6 79.2-10.2ZM9.04 203.3c0-.7 1.5-.3 1.5-1V196c-.8-1.2-.9-2 .1-2.1l.9-71.5v87.4c0 7.6 0 16.1-2.7 23.3l-6.2 3 4.5-4c2.3-4.7 3.2-14.6 3.3-25.3 0-.8-1.4-2.7-1.4-3.5Zm183.5 3.5c.1 10.7 1 20.6 3.3 25.3l4.5 4-6.1-3c-2.2-5.7-2.7-12.2-2.8-18.4-3.266-4.333-3.266-5.966 0-4.9v-87.4l1.1 84.4Z"/>
  <defs>
    <linearGradient id="b" x1="183.44" x2="183.44" y1="237.2" y2="17.6" gradientUnits="userSpaceOnUse">
      <stop stop-color="#777B9C"/>
      <stop offset="1" stop-color="#525673"/>
    </linearGradient>
    <linearGradient id="c" x1=".24" x2="101.54" y1="-7.6" y2="-7.6" gradientUnits="userSpaceOnUse">
      <stop stop-color="#788896"/>
      <stop offset="1" stop-color="#9FB1C4"/>
    </linearGradient>
    <linearGradient id="d" x1="8.84" x2="101.54" y1="-1.5" y2="-1.5" gradientUnits="userSpaceOnUse">
      <stop stop-color="#676B87"/>
      <stop offset="1" stop-color="#5B597D"/>
    </linearGradient>
    <linearGradient id="e" x1="101.54" x2="202.74" y1="-7.6" y2="-7.6" gradientUnits="userSpaceOnUse">
      <stop stop-color="#99AAC9"/>
      <stop offset="1" stop-color="#515D7D"/>
    </linearGradient>
    <linearGradient id="f" x1="101.54" x2="194.24" y1="-1.5" y2="-1.5" gradientUnits="userSpaceOnUse">
      <stop stop-color="#46435E"/>
      <stop offset="1" stop-color="#4A4D61"/>
    </linearGradient>
    <linearGradient id="g" x1="177.441" x2="177.441" y1="233.1" y2="21.7" gradientUnits="userSpaceOnUse">
      <stop stop-color="#9FB1C4"/>
      <stop offset="1" stop-color="#788896"/>
    </linearGradient>
    <linearGradient id="h" x1=".84" x2=".84" y1="233.1" y2="21.7" gradientUnits="userSpaceOnUse">
      <stop stop-color="#777B9C"/>
      <stop offset="1" stop-color="#525673"/>
    </linearGradient>
    <linearGradient id="i" x1="-7.66" x2="-7.66" y1="237.2" y2="17.6" gradientUnits="userSpaceOnUse">
      <stop stop-color="#A5B8CC"/>
      <stop offset="1" stop-color="#8799A8"/>
    </linearGradient>
    <linearGradient id="j" x1="8.84" x2="101.54" y1="220.7" y2="220.7" gradientUnits="userSpaceOnUse">
      <stop stop-color="#788896"/>
      <stop offset="1" stop-color="#BCD1E8"/>
    </linearGradient>
    <linearGradient id="k" x1=".24" x2="101.54" y1="225.1" y2="225.1" gradientUnits="userSpaceOnUse">
      <stop stop-color="#5A5D75"/>
      <stop offset="1" stop-color="#5B597D"/>
    </linearGradient>
    <linearGradient id="l" x1="101.54" x2="194.24" y1="220.7" y2="220.7" gradientUnits="userSpaceOnUse">
      <stop stop-color="#99AAC9"/>
      <stop offset="1" stop-color="#515D7D"/>
    </linearGradient>
    <linearGradient id="m" x1="101.54" x2="202.74" y1="225.1" y2="225.1" gradientUnits="userSpaceOnUse">
      <stop stop-color="#46435E"/>
      <stop offset="1" stop-color="#4A4D61"/>
    </linearGradient>
    <radialGradient id="a" cx="0" cy="0" r="1" gradientTransform="translate(101.54 127.4) scale(123.2)" gradientUnits="userSpaceOnUse">
      <stop stop-color="#3F576E"/>
      <stop offset=".8" stop-color="#293C4F"/>
      <stop offset="1" stop-color="#20283B"/>
    </radialGradient>
  </defs>
</svg>
